<svg xmlns="http://www.w3.org/2000/svg" viewBox="0 0 96 96" role="img" aria-labelledby="title desc">
  <title id="title">SvetSalonPro Icon</title>
  <desc id="desc">Минималистичный монограмный знак с инициалами S и P</desc>
  <defs>
    <linearGradient id="gradient" x1="0%" y1="0%" x2="100%" y2="100%">
      <stop offset="0%" stop-color="#f472b6" />
      <stop offset="50%" stop-color="#ec4899" />
      <stop offset="100%" stop-color="#a855f7" />
    </linearGradient>
    <filter id="shadow" x="-20%" y="-20%" width="140%" height="140%">
      <feDropShadow dx="0" dy="4" stdDeviation="6" flood-color="rgba(236,72,153,0.35)" />
    </filter>
  </defs>
  <rect width="96" height="96" rx="28" fill="#0f172a" />
  <g fill="url(#gradient)" filter="url(#shadow)">
    <path d="M30 28h24c8.3 0 14 5.7 14 13.4S62.4 55 54 55h-9v13H30V28Zm15 17.3h6.7c2.9 0 4.8-1.6 4.8-3.9s-1.9-3.9-4.8-3.9H45v7.8Z" />
    <path d="M51 68l9.7-14.1c1.5-2.1 2.3-4.4 2.3-6.7 0-6.7 5.1-12.2 12.5-12.2h1.5v13h-1.5c-1 0-1.6.6-1.6 1.5 0 .7.3 1.3.9 1.9l8 8.3V68H72.6l-6.2-6.5L60 68H51Z" />
  </g>
</svg>
